<svg width="220" height="62" viewBox="0 0 220 62" fill="none" xmlns="http://www.w3.org/2000/svg">
<g filter="url(#filter0_d_69_86)">
<path fill-rule="evenodd" clip-rule="evenodd" d="M24 0H4V20C4 28.2843 10.7157 35 19 35H39V15C39 6.71573 32.2843 0 24 0ZM24 5H9V20C9 25.5228 13.4772 30 19 30H34V15C34 9.47715 29.5228 5 24 5Z" fill="black" fill-opacity="0.5"/>
<path d="M67.8068 7.72727H72.7273L70.2273 22.8409C69.947 24.5379 69.2992 26.0227 68.2841 27.2955C67.2689 28.5682 65.9773 29.5606 64.4091 30.2727C62.8409 30.9773 61.0909 31.3295 59.1591 31.3295C57.2273 31.3295 55.5985 30.9773 54.2727 30.2727C52.947 29.5606 51.9886 28.5682 51.3977 27.2955C50.8068 26.0227 50.6515 24.5379 50.9318 22.8409L53.4318 7.72727H58.3523L55.9091 22.4205C55.7727 23.3068 55.8409 24.0947 56.1136 24.7841C56.3939 25.4735 56.8561 26.0152 57.5 26.4091C58.1439 26.803 58.9394 27 59.8864 27C60.8409 27 61.7045 26.803 62.4773 26.4091C63.2576 26.0152 63.8977 25.4735 64.3977 24.7841C64.9053 24.0947 65.2273 23.3068 65.3636 22.4205L67.8068 7.72727ZM79.3665 20.9091L77.6847 31H72.8551L75.7642 13.5455H80.3665L79.8665 16.625H80.0597C80.6127 15.6023 81.393 14.7955 82.4006 14.2045C83.4157 13.6136 84.571 13.3182 85.8665 13.3182C87.0786 13.3182 88.09 13.5833 88.9006 14.1136C89.7188 14.6439 90.2945 15.3977 90.6278 16.375C90.9688 17.3523 91.0256 18.5227 90.7983 19.8864L88.9347 31H84.0938L85.8097 20.75C85.9839 19.6818 85.8475 18.8485 85.4006 18.25C84.9612 17.6439 84.2528 17.3409 83.2756 17.3409C82.6241 17.3409 82.0256 17.4811 81.4801 17.7614C80.9347 18.0417 80.4763 18.4508 80.1051 18.9886C79.7415 19.5189 79.4953 20.1591 79.3665 20.9091ZM92.7273 31L95.6364 13.5455H100.477L97.5682 31H92.7273ZM98.5568 11.2727C97.8371 11.2727 97.2424 11.0341 96.7727 10.5568C96.3106 10.072 96.1212 9.49621 96.2045 8.82954C96.2879 8.14773 96.6136 7.57197 97.1818 7.10227C97.75 6.625 98.3939 6.38636 99.1136 6.38636C99.8333 6.38636 100.42 6.625 100.875 7.10227C101.33 7.57197 101.519 8.14773 101.443 8.82954C101.367 9.49621 101.045 10.072 100.477 10.5568C99.9167 11.0341 99.2765 11.2727 98.5568 11.2727ZM101.537 31L105.401 7.72727H120.81L120.128 11.7841H109.639L108.73 17.3295H118.196L117.514 21.3864H108.048L106.457 31H101.537ZM120.165 31L123.074 13.5455H127.915L125.006 31H120.165ZM125.994 11.2727C125.275 11.2727 124.68 11.0341 124.21 10.5568C123.748 10.072 123.559 9.49621 123.642 8.82954C123.725 8.14773 124.051 7.57197 124.619 7.10227C125.188 6.625 125.831 6.38636 126.551 6.38636C127.271 6.38636 127.858 6.625 128.312 7.10227C128.767 7.57197 128.956 8.14773 128.881 8.82954C128.805 9.49621 128.483 10.072 127.915 10.5568C127.354 11.0341 126.714 11.2727 125.994 11.2727ZM135.429 20.9091L133.747 31H128.918L131.827 13.5455H136.429L135.929 16.625H136.122C136.675 15.6023 137.455 14.7955 138.463 14.2045C139.478 13.6136 140.634 13.3182 141.929 13.3182C143.141 13.3182 144.152 13.5833 144.963 14.1136C145.781 14.6439 146.357 15.3977 146.69 16.375C147.031 17.3523 147.088 18.5227 146.861 19.8864L144.997 31H140.156L141.872 20.75C142.046 19.6818 141.91 18.8485 141.463 18.25C141.024 17.6439 140.315 17.3409 139.338 17.3409C138.687 17.3409 138.088 17.4811 137.543 17.7614C136.997 18.0417 136.539 18.4508 136.168 18.9886C135.804 19.5189 135.558 20.1591 135.429 20.9091ZM155.199 31.2841C153.866 31.2841 152.718 30.9432 151.756 30.2614C150.801 29.572 150.119 28.5606 149.71 27.2273C149.309 25.8864 149.271 24.2424 149.597 22.2955C149.93 20.2955 150.528 18.6326 151.392 17.3068C152.256 15.9735 153.278 14.9773 154.46 14.3182C155.642 13.6515 156.873 13.3182 158.153 13.3182C159.123 13.3182 159.907 13.4848 160.506 13.8182C161.112 14.1439 161.578 14.553 161.903 15.0455C162.229 15.5303 162.456 16.0076 162.585 16.4773H162.733L164.199 7.72727H169.028L165.165 31H160.392L160.858 28.2045H160.653C160.35 28.6894 159.949 29.1705 159.449 29.6477C158.956 30.1174 158.358 30.5076 157.653 30.8182C156.956 31.1288 156.138 31.2841 155.199 31.2841ZM157.335 27.4318C158.108 27.4318 158.805 27.2197 159.426 26.7955C160.047 26.3636 160.57 25.7614 160.994 24.9886C161.419 24.2159 161.714 23.3106 161.881 22.2727C162.055 21.2348 162.059 20.3333 161.892 19.5682C161.725 18.803 161.4 18.2121 160.915 17.7955C160.438 17.3788 159.805 17.1705 159.017 17.1705C158.222 17.1705 157.517 17.3864 156.903 17.8182C156.297 18.25 155.794 18.8485 155.392 19.6136C154.998 20.3788 154.718 21.2652 154.551 22.2727C154.384 23.2879 154.373 24.1856 154.517 24.9659C154.661 25.7386 154.968 26.3447 155.438 26.7841C155.907 27.2159 156.54 27.4318 157.335 27.4318ZM177.043 31.3409C175.255 31.3409 173.774 30.9773 172.599 30.25C171.425 29.5152 170.599 28.4773 170.122 27.1364C169.652 25.7879 169.573 24.1932 169.884 22.3523C170.187 20.5568 170.796 18.9811 171.713 17.625C172.637 16.2689 173.796 15.2121 175.19 14.4545C176.584 13.697 178.137 13.3182 179.849 13.3182C181.001 13.3182 182.043 13.5038 182.974 13.875C183.914 14.2386 184.694 14.7917 185.315 15.5341C185.937 16.2689 186.361 17.1894 186.588 18.2955C186.823 19.4015 186.819 20.697 186.577 22.1818L186.361 23.5114H171.634L172.099 20.5114H182.281C182.395 19.8144 182.349 19.197 182.145 18.6591C181.94 18.1212 181.599 17.7008 181.122 17.3977C180.645 17.0871 180.058 16.9318 179.361 16.9318C178.649 16.9318 177.982 17.1061 177.361 17.4545C176.74 17.803 176.217 18.2614 175.793 18.8295C175.376 19.3902 175.107 20 174.986 20.6591L174.452 23.6364C174.3 24.553 174.33 25.3144 174.543 25.9205C174.762 26.5265 175.141 26.9811 175.679 27.2841C176.217 27.5795 176.899 27.7273 177.724 27.7273C178.262 27.7273 178.766 27.6515 179.236 27.5C179.713 27.3485 180.137 27.125 180.509 26.8295C180.88 26.5265 181.183 26.1515 181.418 25.7045L185.838 26C185.429 27.0758 184.808 28.0152 183.974 28.8182C183.141 29.6136 182.137 30.2348 180.963 30.6818C179.796 31.1212 178.49 31.3409 177.043 31.3409ZM188.29 31L191.199 13.5455H195.892L195.381 16.5909H195.562C196.062 15.5076 196.733 14.6894 197.574 14.1364C198.422 13.5758 199.335 13.2955 200.312 13.2955C200.555 13.2955 200.809 13.3106 201.074 13.3409C201.347 13.3636 201.589 13.4015 201.801 13.4545L201.074 17.7614C200.862 17.6856 200.559 17.625 200.165 17.5795C199.778 17.5265 199.411 17.5 199.062 17.5C198.358 17.5 197.703 17.6553 197.097 17.9659C196.491 18.2689 195.979 18.6932 195.562 19.2386C195.153 19.7841 194.884 20.4129 194.756 21.125L193.131 31H188.29Z" fill="black" fill-opacity="0.5"/>
</g>
<defs>
<filter id="filter0_d_69_86" x="0" y="0" width="224" height="70" filterUnits="userSpaceOnUse" color-interpolation-filters="sRGB">
<feFlood flood-opacity="0" result="BackgroundImageFix"/>
<feColorMatrix in="SourceAlpha" type="matrix" values="0 0 0 0 0 0 0 0 0 0 0 0 0 0 0 0 0 0 127 0" result="hardAlpha"/>
<feOffset dy="4"/>
<feGaussianBlur stdDeviation="2"/>
<feComposite in2="hardAlpha" operator="out"/>
<feColorMatrix type="matrix" values="0 0 0 0 0 0 0 0 0 0 0 0 0 0 0 0 0 0 0.25 0"/>
<feBlend mode="normal" in2="BackgroundImageFix" result="effect1_dropShadow_69_86"/>
<feBlend mode="normal" in="SourceGraphic" in2="effect1_dropShadow_69_86" result="shape"/>
</filter>
</defs>
</svg>
