<svg width="86" height="42" viewBox="0 0 86 42" fill="none" xmlns="http://www.w3.org/2000/svg">
<path d="M33.9364 40.9268C31.6557 40.3042 30.0458 38.0979 30.0161 35.5541C30.0007 34.2331 30.2288 33.3625 30.8542 32.3557C32.6705 29.4313 36.5306 29.0212 38.8278 31.5085C39.9141 32.6846 40.2213 33.5573 40.2232 35.4726C40.2246 36.9418 40.1836 37.1866 39.8057 37.9629C38.9319 39.7581 37.3257 40.8995 35.5086 41.0167C34.9557 41.0524 34.2483 41.0121 33.9364 40.9268ZM36.0668 36.9177C36.8557 36.3198 36.986 34.9376 36.3176 34.2581C35.1534 33.0746 33.3929 33.9612 33.5828 35.6355C33.727 36.9073 35.1271 37.63 36.0668 36.9177ZM69.342 40.8793C67.783 40.4015 66.415 39.0155 65.8275 37.3184C65.4555 36.2437 65.5484 34.121 66.0122 33.0978C66.5604 31.8885 67.3263 31.0531 68.4219 30.4692C69.3219 29.9896 69.5645 29.9329 70.714 29.9329C71.8628 29.9329 72.1065 29.9898 73.0057 30.4684C74.8553 31.4528 75.8661 33.2243 75.8611 35.4726C75.8558 37.8176 74.7331 39.6716 72.7406 40.6253C71.8784 41.038 70.2556 41.1593 69.342 40.8793ZM71.8045 36.708C72.2267 36.2998 72.2962 36.125 72.2962 35.4726C72.2962 34.8202 72.2267 34.6454 71.8045 34.2372C71.4363 33.8812 71.1627 33.7618 70.7152 33.7618C70.2678 33.7618 69.9942 33.8812 69.626 34.2372C69.2038 34.6454 69.1343 34.8202 69.1343 35.4726C69.1343 36.125 69.2038 36.2998 69.626 36.708C69.9942 37.064 70.2678 37.1834 70.7152 37.1834C71.1627 37.1834 71.4363 37.064 71.8045 36.708ZM19.6724 31.2388V28.385H19.1382C17.9361 28.385 17.4112 26.7334 18.3057 25.7655L18.7458 25.2892H23.5078C28.7381 25.2892 28.9479 25.2545 29.3017 24.3301C29.5308 23.7316 29.3943 22.9796 28.9835 22.577C28.6951 22.2944 28.2162 22.2697 21.5421 22.1935L14.409 22.112L13.9951 21.664C13.4174 21.0386 13.4174 20.0896 13.9952 19.4643L14.4092 19.0163L26.5397 18.9348L38.6702 18.8533L39.0336 18.3962C39.514 17.7917 39.514 16.9822 39.0335 16.3777L38.6702 15.9205L20.066 15.8391L1.4618 15.7576L1.14515 15.4149C0.970994 15.2264 0.792643 14.7829 0.748818 14.4293C0.68276 13.8964 0.738284 13.6976 1.07347 13.2665L1.4778 12.7465L23.6712 12.7042L45.8645 12.6619L46.2786 12.2138C46.8564 11.5885 46.8565 10.6395 46.2786 10.0142L45.8646 9.56611L28.2138 9.48465C18.5058 9.43984 10.4713 9.33924 10.3594 9.26109C9.9605 8.98269 9.70651 8.03446 9.87916 7.46836C10.2242 6.33704 9.61728 6.3889 22.5117 6.3889C30.5324 6.3889 34.2235 6.33433 34.4714 6.21208C35.3839 5.76218 35.5588 4.29015 34.7786 3.62609C34.3969 3.30111 34.2116 3.29316 27.0251 3.29316C19.1842 3.29316 18.8557 3.26278 18.4799 2.50299C18.1972 1.93138 18.287 1.06833 18.6806 0.573099L19.044 0.115946L38.7063 0.0734149L58.3686 0.0308838V14.5338V29.0367H59.272H60.1754V18.1201V7.20357H66.7142H73.2531L73.5583 7.62355C73.8271 7.99326 76.3079 10.8122 81.9355 17.1425C82.8516 18.1731 84.0549 19.5295 84.6095 20.1568L85.6179 21.2974L85.6198 27.6925L85.6217 34.0877L81.5939 34.0875L77.5662 34.0873L77.3083 33.1376C76.9468 31.8061 75.9884 30.33 74.9223 29.4628C72.1045 27.1707 68.3193 27.4571 65.83 30.1509C64.9618 31.0904 64.1725 32.5517 64.002 33.5355L63.9061 34.0877H52.9481H41.9901L41.8943 33.5354C41.5941 31.8033 39.8394 29.5181 38.1426 28.6495C34.3006 26.6827 29.7037 28.9204 28.4772 33.3545L28.297 34.0062L23.9847 34.0494L19.6724 34.0927V31.2388ZM77.3166 15.7169C74.5598 12.6028 72.2346 10.001 72.1497 9.93521C72.0646 9.86937 70.0132 9.81438 67.591 9.81301L63.1868 9.81051V15.5947V21.3788H72.7579H82.3289L77.3166 15.7169Z" fill="black"/>
</svg>
