<svg width="79" height="53" viewBox="0 0 79 53" fill="none" xmlns="http://www.w3.org/2000/svg">
<g clip-path="url(#clip0_234_252)">
<path d="M17.3851 52.1798C17.419 51.8992 17.5048 51.4309 17.5759 51.1392C17.6471 50.8475 17.7052 50.4675 17.7052 50.2949C17.7052 50.1223 17.7474 49.954 17.799 49.921C17.8506 49.888 17.8928 49.6523 17.8928 49.3972C17.8928 49.1421 17.9244 48.901 17.9631 48.8615C18.0267 48.7965 18.1892 47.9333 18.3307 46.9095C18.3603 46.6958 18.4142 46.4991 18.4505 46.4724C18.4869 46.4457 18.5672 46.0741 18.629 45.6466C18.6908 45.2192 18.764 44.7165 18.7917 44.5295C18.8194 44.3425 18.8779 44.102 18.9216 43.9952C18.9968 43.8116 19.1726 42.8491 19.2677 42.1008C19.2915 41.9138 19.3471 41.6734 19.3914 41.5665C19.4357 41.4597 19.4975 41.2192 19.5289 41.0322C19.7268 39.8521 19.8236 39.388 19.8855 39.3239C19.9241 39.2839 19.9553 39.1601 19.9549 39.0488C19.9537 38.7582 20.2706 37.4924 20.3542 37.454C20.3928 37.4362 20.4245 37.316 20.4245 37.1868C20.4245 37.0577 20.4621 36.9521 20.5081 36.9521C20.5541 36.9521 20.6182 36.8428 20.6505 36.7092C20.6829 36.5756 20.7508 36.4663 20.8013 36.4663C20.8519 36.4663 20.8933 36.4207 20.8933 36.365C20.8933 36.2728 21.4266 35.6198 21.7148 35.359C21.7798 35.3002 21.9964 35.0881 22.196 34.8878C22.3957 34.6874 22.587 34.5235 22.6211 34.5235C22.6552 34.5235 22.7968 34.4142 22.9359 34.2806C23.0749 34.147 23.2383 34.0377 23.299 34.0377C23.3597 34.0377 23.4235 34.0004 23.4406 33.9547C23.4762 33.8603 24.7817 33.0192 25.3472 32.7262C25.5535 32.6194 25.7434 32.5101 25.7691 32.4834C25.8216 32.4291 26.4338 32.1209 27.6914 31.5158C28.1555 31.2924 28.6085 31.0691 28.698 31.0194C28.7876 30.9697 28.9247 30.9291 29.0028 30.9291C29.0808 30.9291 29.1447 30.8854 29.1447 30.8319C29.1447 30.7785 29.1986 30.7348 29.2645 30.7348C29.394 30.7348 30.1547 30.3385 30.8325 29.918C31.0645 29.774 31.3705 29.6051 31.5123 29.5427C31.6541 29.4804 31.7701 29.3952 31.7701 29.3535C31.7701 29.3118 31.8343 29.2776 31.9126 29.2776C31.991 29.2776 32.2223 29.1683 32.4265 29.0348C32.6307 28.9012 32.86 28.7919 32.9359 28.7919C33.1119 28.7919 33.2692 28.2149 33.2699 27.5668L33.2704 27.0703L34.9582 26.8112V26.252C34.9582 25.487 34.7891 24.7118 34.6222 24.7118C34.5492 24.7118 34.4894 24.668 34.4894 24.6146C34.4894 24.5612 34.4468 24.5175 34.3948 24.5175C34.2479 24.5175 33.7392 24.0151 33.7392 23.87C33.7392 23.7987 33.7073 23.7403 33.6684 23.7403C33.5478 23.7403 33.0829 22.5397 33.0829 22.2284C33.0829 22.1045 33.0407 21.9761 32.9891 21.9431C32.9375 21.9101 32.8953 21.627 32.8953 21.3139C32.8953 20.6297 32.8346 20.4374 32.6184 20.4374C32.3495 20.4374 31.8802 20.1514 31.692 19.8729C31.4754 19.5524 31.4051 19.2578 31.2986 18.2249C31.253 17.7828 31.1847 17.3691 31.1468 17.3056C31.0763 17.1873 30.9541 16.5985 30.8626 15.936C30.8328 15.7197 30.855 15.5179 30.9156 15.4551C30.973 15.3957 31.02 15.2772 31.02 15.1918C31.02 15.1065 31.1888 14.8659 31.395 14.6573C31.8173 14.2301 31.8201 14.2199 31.6383 13.7976C31.5658 13.6293 31.4348 13.2729 31.3471 13.0058C31.2594 12.7386 31.1519 12.4326 31.1081 12.3258C30.8557 11.7091 30.8193 11.2743 30.8681 9.45998C30.9232 7.41118 30.9968 6.45566 31.1112 6.30276C31.1511 6.24933 31.2127 5.99898 31.248 5.74643C31.2832 5.49389 31.3519 5.2618 31.4005 5.23069C31.4491 5.19957 31.4888 5.06741 31.4888 4.93699C31.4888 4.80656 31.5264 4.69986 31.5724 4.69986C31.6184 4.69986 31.6824 4.59078 31.7147 4.45746C31.747 4.32415 31.9731 4.00486 32.2172 3.74794C32.6558 3.2861 33.1851 3.04838 33.7746 3.04838C33.9695 3.04838 33.9949 3.00307 33.9949 2.65588C33.9949 2.37833 34.059 2.19267 34.2138 2.022C34.485 1.72295 35.2027 1.29977 35.4388 1.29977C35.5354 1.29977 35.6145 1.26628 35.6145 1.22535C35.6145 1.16001 36.3941 0.953052 37.396 0.752417C37.9003 0.651425 40.4679 0.67969 41.0998 0.793184C41.8251 0.923437 42.5498 1.09592 42.7876 1.19482C42.8908 1.23773 43.1348 1.34447 43.3299 1.43202C43.5251 1.51957 43.7466 1.59121 43.8222 1.59121C43.8978 1.59121 43.9597 1.62982 43.9597 1.67702C43.9597 1.72422 44.0335 1.78853 44.1238 1.81992C44.4252 1.92479 45.2806 2.57139 45.7554 3.05338C46.1963 3.50088 46.7532 4.53718 46.9273 5.23419C46.954 5.34105 47.0106 5.51592 47.0531 5.62278C47.2547 6.13025 47.3822 8.01168 47.3822 10.48C47.3822 11.9227 47.3611 13.3195 47.3353 13.5841C47.29 14.0487 47.2981 14.0688 47.5697 14.1654C47.9754 14.3098 48.2586 14.6859 48.3292 15.1739C48.3969 15.6419 48.3144 16.723 48.1849 17.0634C48.1395 17.1826 48.0299 17.5425 47.9412 17.8631C47.8525 18.1837 47.7432 18.4875 47.6983 18.5382C47.6533 18.589 47.6166 18.7274 47.6166 18.8459C47.6166 18.9643 47.5849 19.0758 47.5462 19.0936C47.5076 19.1114 47.3915 19.3008 47.2884 19.5145C47.0889 19.9278 46.8014 20.2346 46.6086 20.2399C46.5441 20.2417 46.4914 20.2916 46.4914 20.3508C46.4914 20.4155 46.4029 20.4355 46.2699 20.4009C46.0606 20.3465 46.0452 20.3741 45.9919 20.9004C45.8826 21.9791 45.7264 22.9157 45.6405 23.0069C45.5928 23.0576 45.5537 23.1997 45.5537 23.3226C45.5537 23.4455 45.5115 23.546 45.4599 23.546C45.4084 23.546 45.366 23.6007 45.3657 23.6675C45.3651 23.8333 44.8102 24.4396 44.5141 24.5979C44.2887 24.7184 44.2777 24.7566 44.3451 25.1808C44.3848 25.4304 44.4198 25.9009 44.4229 26.2263L44.4285 26.8178L45.1083 26.9407C45.4822 27.0082 45.8409 27.0794 45.9053 27.0989C45.9846 27.1229 46.0225 27.3537 46.0225 27.8128C46.0225 28.6464 46.1338 28.9162 46.5727 29.147C46.76 29.2456 46.9344 29.349 46.9602 29.377C47.0912 29.519 47.5339 29.7633 47.6601 29.7633C47.7393 29.7633 47.8041 29.807 47.8041 29.8605C47.8041 29.9139 47.8451 29.9576 47.8953 29.9576C47.9736 29.9576 48.7714 30.3063 49.2106 30.5324C49.363 30.6109 51.0866 31.167 51.6954 31.334C51.9017 31.3906 52.1548 31.4711 52.258 31.5127C52.3611 31.5544 52.6565 31.6629 52.9143 31.7538C53.5819 31.9891 55.3623 32.8298 55.4929 32.9713C55.5187 32.9993 55.6586 33.1005 55.8039 33.1964C56.2696 33.5037 57.0717 34.2677 57.5089 34.8206C57.7488 35.124 58.0257 35.9386 58.0251 36.3392C58.0248 36.5097 58.0624 36.6734 58.1085 36.7029C58.1546 36.7324 58.2136 36.9208 58.2396 37.1215C58.2997 37.5851 58.4714 38.3031 58.5825 38.555C58.6297 38.6618 58.6891 38.8804 58.7147 39.0407C58.8084 39.6286 58.9722 40.308 59.0598 40.4722C59.1093 40.565 59.1498 40.7487 59.1498 40.8805C59.1498 41.0123 59.189 41.2206 59.2368 41.3433C59.2847 41.466 59.3936 41.9162 59.4789 42.3436C59.5642 42.771 59.6728 43.1967 59.7201 43.2895C59.7675 43.3822 59.8062 43.529 59.8062 43.6156C59.8062 43.8234 60.0862 45.1075 60.1855 45.3551C60.2283 45.462 60.2822 45.7024 60.3052 45.8894C60.3662 46.3861 60.5683 47.3648 60.6562 47.5895C60.698 47.6963 60.7517 47.9368 60.7754 48.1238C60.8705 48.872 61.0463 49.8346 61.1215 50.0181C61.2129 50.2416 61.3157 51.2093 61.338 52.0582L61.3533 52.641L17.3234 52.69L17.3848 52.1798L17.3851 52.1798ZM62.3378 46.3578C62.3378 46.188 62.299 45.9147 62.2516 45.7507C62.1633 45.4447 61.9767 44.5145 61.8995 43.9951C61.8756 43.8349 61.8222 43.6163 61.7808 43.5094C61.7393 43.4025 61.632 42.9654 61.5424 42.538C61.4528 42.1105 61.3474 41.6734 61.3081 41.5665C61.2429 41.3888 60.929 40.1105 60.7475 39.2836C60.57 38.4745 60.4346 37.9607 60.3576 37.8035C60.3121 37.7107 60.2749 37.5337 60.2749 37.41C60.2749 37.2864 60.2339 37.1428 60.1838 37.0909C60.1336 37.039 60.0642 36.6791 60.0294 36.2912C59.9946 35.9033 59.9301 35.5629 59.8861 35.5347C59.8421 35.5065 59.8061 35.3813 59.8061 35.2563C59.8061 34.7688 59.1204 33.621 58.3527 32.8232C57.9401 32.3945 57.5041 31.9651 57.3837 31.869C56.9646 31.5343 55.9574 30.9291 55.8194 30.9291C55.7429 30.9291 55.6804 30.8957 55.6804 30.8549C55.6804 30.7768 54.996 30.4434 54.8358 30.4434C54.7846 30.4434 54.7427 30.4027 54.7427 30.353C54.7427 30.3033 54.6478 30.2486 54.5317 30.2315C54.3962 30.2116 54.3101 30.1224 54.2908 29.9819C54.2743 29.8617 54.2985 29.7633 54.3445 29.7633C54.3905 29.7633 54.5258 29.5608 54.6451 29.3133C54.8569 28.8739 55.5887 28.0147 55.751 28.0147C55.7958 28.0147 55.9143 27.9366 56.0143 27.8411C56.1143 27.7456 56.3332 27.6092 56.5008 27.5379L56.8055 27.4082V26.4719C56.8055 25.4233 56.7732 25.3677 56.0904 25.2401C55.8907 25.2027 55.685 25.1421 55.6335 25.1054C55.5819 25.0688 55.2865 24.9595 54.9771 24.8627C54.6677 24.7659 54.3176 24.6486 54.1991 24.6021C54.0807 24.5555 53.9013 24.5175 53.8006 24.5175C53.6999 24.5175 53.6175 24.4793 53.6175 24.4327C53.6175 24.3861 53.4577 24.3216 53.2624 24.2892C53.0672 24.2569 52.698 24.1203 52.442 23.9858C52.186 23.8512 51.9238 23.7409 51.8594 23.7407C51.7949 23.7407 51.7422 23.6966 51.7422 23.6432C51.7422 23.5897 51.7798 23.546 51.8258 23.546C51.8717 23.546 51.9358 23.4367 51.9682 23.3032C52.0005 23.1696 52.0684 23.0603 52.119 23.0603C52.1696 23.0603 52.211 22.951 52.211 22.8174C52.211 22.6839 52.2532 22.5746 52.3048 22.5746C52.3563 22.5746 52.3985 22.488 52.3985 22.3823C52.3985 22.2765 52.4671 22.0124 52.5509 21.7954C52.7287 21.3351 52.6723 21.2021 52.4287 21.5068C51.8546 22.2246 50.8044 23.1863 50.8044 22.9941C50.8044 22.945 50.8432 22.8633 50.8906 22.8126C51.0309 22.6622 51.7421 21.1915 51.7421 21.0517C51.7421 20.981 51.7843 20.9231 51.8359 20.9231C51.8875 20.9231 51.9296 20.875 51.9296 20.8163C51.9296 20.7126 52.1402 20.1705 52.3114 19.8335C52.4181 19.6234 52.5897 18.9395 52.6474 18.4945C52.6716 18.3075 52.7266 18.067 52.7696 17.9602C52.854 17.7507 53.0415 16.397 53.1599 15.1429C53.2003 14.7155 53.273 14.1035 53.3215 13.7829C53.37 13.4623 53.4603 12.7847 53.5222 12.2772C53.584 11.7696 53.6699 11.2668 53.713 11.16C53.756 11.0531 53.8156 10.769 53.8453 10.5285C53.9405 9.75918 54.1312 8.79819 54.2036 8.7231C54.2422 8.6831 54.2738 8.54777 54.2738 8.42237C54.2738 8.29699 54.3125 8.11848 54.3598 8.0257C54.4071 7.93293 54.6275 7.4745 54.8496 7.00703C55.0717 6.53956 55.2862 6.15701 55.3262 6.15701C55.3662 6.15701 55.399 6.10723 55.399 6.04639C55.399 5.89611 56.3541 4.8991 56.5008 4.89638C56.5652 4.89512 56.618 4.86002 56.618 4.81831C56.618 4.77659 56.734 4.69087 56.8758 4.62782C57.0177 4.56476 57.3611 4.38032 57.6389 4.21794C57.9168 4.05556 58.2016 3.92271 58.2719 3.92271C58.3421 3.92271 58.3995 3.88395 58.3995 3.83659C58.3995 3.78922 58.5156 3.7268 58.6574 3.69788C59.1034 3.60692 59.7506 3.41521 59.9758 3.30731C60.2771 3.163 62.6868 3.17696 62.8286 3.32383C62.8887 3.38606 63.034 3.43698 63.1516 3.43698C63.3843 3.43698 63.8885 3.61893 64.661 3.98174C64.9332 4.10956 65.1969 4.21414 65.2471 4.21414C65.2972 4.21414 65.3383 4.25276 65.3383 4.29996C65.3383 4.34715 65.4121 4.40992 65.5024 4.43943C66.0065 4.60432 67.4011 5.78936 67.4011 6.05292C67.4011 6.10255 67.4549 6.20092 67.5207 6.27153C67.7549 6.52301 68.5193 8.26369 68.5819 8.68812C68.617 8.92564 68.6776 9.16368 68.7166 9.21711C68.7556 9.27054 68.8101 9.51098 68.8377 9.75141C68.8654 9.99185 68.9578 10.6039 69.0432 11.1114C69.2586 12.3928 69.5399 14.37 69.7479 16.0659C69.935 17.5911 70.158 18.7785 70.3179 19.1003C70.3639 19.1931 70.4019 19.3461 70.4022 19.4403C70.4025 19.5345 70.4658 19.7368 70.5429 19.8899C70.6199 20.0429 70.6829 20.2287 70.6829 20.3027C70.6829 20.3768 70.7251 20.4374 70.7767 20.4374C70.8283 20.4374 70.8705 20.4914 70.8705 20.5574C70.8705 20.6234 70.9823 20.9185 71.119 21.2131C71.2556 21.5078 71.4772 21.9893 71.6112 22.2831C71.7453 22.5769 71.896 22.8478 71.9461 22.885C71.9961 22.9221 72.0107 22.9799 71.9784 23.0134C71.8878 23.1072 70.9506 22.2307 70.3638 21.5033L70.0915 21.1659L70.1584 21.5545C70.2811 22.2663 70.5905 23.1121 70.7804 23.2545C70.816 23.2812 70.8748 23.4017 70.9111 23.5222C70.9605 23.686 70.9342 23.756 70.8066 23.7998C70.7128 23.832 70.4536 23.9428 70.2306 24.046C70.0076 24.1493 69.7008 24.2595 69.5488 24.2909C69.3969 24.3224 69.2498 24.3863 69.222 24.4328C69.1943 24.4793 69.068 24.5174 68.9414 24.5174C68.8148 24.5174 68.638 24.5575 68.5484 24.6066C68.3763 24.7008 67.1507 25.1073 66.4978 25.2866C65.9263 25.4436 65.892 25.5251 65.9627 26.5574C66.023 27.4365 66.0317 27.4632 66.2909 27.5645C66.4373 27.6218 66.5572 27.7028 66.5572 27.7445C66.5572 27.7862 66.6022 27.8203 66.6572 27.8203C66.7688 27.8203 67.3453 28.2499 67.6348 28.5489C67.7383 28.6558 67.9073 28.9174 68.0105 29.1303C68.1136 29.3432 68.2508 29.5758 68.3152 29.6473C68.3797 29.7187 68.4324 29.8112 68.4324 29.8529C68.4324 30.0324 69.0067 30.5287 69.3377 30.6353C69.704 30.7533 70.0596 30.9067 70.7239 31.2332C70.9269 31.333 71.1485 31.4147 71.2161 31.4147C71.2838 31.4147 71.3392 31.4576 71.3392 31.51C71.3392 31.5624 71.4447 31.6327 71.5736 31.6663C71.7025 31.6998 71.808 31.76 71.808 31.8C71.808 31.9076 72.7338 32.3862 72.9418 32.3862C73.0402 32.3862 73.1207 32.4199 73.1207 32.4612C73.1207 32.5451 73.8243 32.7595 74.3637 32.8399C74.5574 32.8688 74.7392 32.9315 74.7677 32.9793C74.7962 33.0271 74.9244 33.0662 75.0526 33.0662C75.1808 33.0662 75.5686 33.1378 75.9144 33.2253C76.5944 33.3973 77.4665 33.9762 77.5739 34.3267C77.607 34.4349 77.6735 34.5234 77.7216 34.5234C77.7697 34.5234 77.809 34.5889 77.809 34.6691C77.809 34.7492 77.8407 34.8151 77.8793 34.8154C77.9713 34.8164 78.2779 35.376 78.2779 35.5432C78.2779 35.6145 78.3271 35.6899 78.3873 35.7107C78.5025 35.7505 78.6051 37.3478 78.7101 40.7407C78.7407 41.7292 78.8037 42.5795 78.85 42.6302C78.8963 42.6809 78.9342 43.6099 78.9342 44.6945V46.6666H62.3376L62.3378 46.3578ZM0.826916 45.0695C0.826916 44.8322 0.784721 44.611 0.73315 44.578C0.616017 44.503 0.606799 42.1756 0.723125 42.0474C0.769183 41.9966 0.832016 41.4524 0.862762 40.8379C0.923372 39.6265 1.11273 38.1763 1.22542 38.0605C1.2641 38.0208 1.29575 37.8836 1.29575 37.7556C1.29575 37.5055 1.53487 36.623 1.67758 36.3462C1.72543 36.2534 1.76458 36.1149 1.76458 36.0383C1.76458 35.9618 1.82605 35.7754 1.90117 35.6242C1.9763 35.4729 2.09208 35.2071 2.15848 35.0334C2.22487 34.8598 2.30361 34.7177 2.33345 34.7177C2.36328 34.7177 2.48479 34.5163 2.60343 34.2702C2.87461 33.7076 4.03402 32.4827 4.5307 32.234C4.73699 32.1307 4.91984 32.0134 4.93702 31.9733C4.95421 31.9333 5.00716 31.9005 5.05469 31.9005C5.10222 31.9005 5.35977 31.7912 5.62702 31.6576C5.89428 31.524 6.16834 31.4147 6.23605 31.4147C6.30375 31.4147 6.35914 31.3715 6.35914 31.3187C6.35914 31.2659 6.52886 31.1946 6.73629 31.1603C6.94372 31.1259 7.13609 31.0598 7.16377 31.0134C7.19146 30.967 7.29658 30.929 7.39738 30.929C7.49818 30.929 7.65393 30.8907 7.74347 30.844C7.83302 30.7972 8.15946 30.6799 8.46889 30.5834C8.77832 30.4868 9.07368 30.3812 9.12526 30.3488C9.17683 30.3163 9.46164 30.2079 9.75818 30.1079C10.0547 30.0079 10.2973 29.8894 10.2973 29.8446C10.2973 29.7999 10.3923 29.7619 10.5083 29.7602C10.6243 29.7585 10.8012 29.6929 10.9013 29.6145C11.0014 29.536 11.1596 29.4718 11.2529 29.4718C11.3462 29.4718 11.4225 29.4281 11.4225 29.3747C11.4225 29.3213 11.4864 29.2775 11.5645 29.2775C11.6425 29.2775 11.7797 29.2359 11.8692 29.1851C11.9588 29.1343 12.2008 29.0163 12.4071 28.923C12.6134 28.8297 12.8032 28.728 12.829 28.6971C12.8548 28.6661 13.0658 28.5557 13.2979 28.4518C13.5299 28.3479 13.7409 28.2398 13.7667 28.2116C13.8278 28.1449 14.7966 27.6595 15.0091 27.5893C15.0994 27.5594 15.1732 27.4462 15.1732 27.3377C15.1732 27.2291 15.2111 27.1404 15.2575 27.1404C15.3039 27.1404 15.3645 26.9546 15.3921 26.7275C15.4198 26.5004 15.5111 25.9649 15.595 25.5375C15.8721 24.1253 15.8718 24.1676 15.6047 23.8691C15.4705 23.7192 15.3607 23.5414 15.3607 23.4741C15.3607 23.4067 15.3231 23.3517 15.2771 23.3517C15.2311 23.3517 15.167 23.2424 15.1347 23.1088C15.1023 22.9752 15.0345 22.8659 14.9839 22.8659C14.9333 22.8659 14.8919 22.8004 14.8919 22.7202C14.8919 22.6401 14.8497 22.5745 14.7981 22.5745C14.7466 22.5745 14.7044 22.5047 14.7044 22.4195C14.7044 22.3342 14.6448 22.1484 14.5719 22.0066C14.3195 21.5154 14.0403 20.8103 13.9853 20.5252C13.9549 20.3678 13.8933 20.2154 13.8484 20.1866C13.8034 20.1579 13.7667 20.0234 13.7667 19.8879C13.7667 19.7523 13.7004 19.4052 13.6194 19.1165C13.4858 18.6403 13.4473 18.5915 13.2058 18.5915C12.9135 18.5915 12.4855 18.155 12.4126 17.7826C12.2377 16.89 12.1637 16.1385 12.1461 15.0793C12.1243 13.7577 12.1289 13.7434 12.6987 13.387C12.8465 13.2946 12.8515 13.2479 12.7431 12.9767C12.5709 12.546 12.5435 8.26033 12.7118 8.08547C12.7763 8.01853 12.829 7.8891 12.829 7.79786C12.829 7.20742 14.1129 5.57625 14.9622 5.08751C15.1814 4.96138 15.3607 4.82727 15.3607 4.78947C15.3607 4.75168 15.4662 4.69331 15.5951 4.65978C15.7241 4.62626 15.8296 4.55595 15.8296 4.50354C15.8296 4.45113 15.8929 4.40825 15.9702 4.40825C16.0476 4.40825 16.1109 4.36747 16.1109 4.31765C16.1109 4.26781 16.1878 4.20174 16.2819 4.17081C16.3759 4.13989 16.5354 4.03859 16.6363 3.94569C16.7372 3.8528 16.9661 3.69156 17.1451 3.58738C17.3241 3.4832 17.5549 3.31569 17.658 3.21515C17.7612 3.1146 17.9194 2.99065 18.0096 2.93971C18.1549 2.85769 18.1737 2.89754 18.1737 3.28765C18.1737 3.52997 18.1953 3.72823 18.2217 3.72823C18.2481 3.72823 18.716 3.26582 19.2615 2.70062C19.807 2.13547 20.2795 1.70022 20.3115 1.73334C20.3434 1.76645 20.3802 2.07554 20.3932 2.42013C20.4061 2.76471 20.4708 3.14535 20.537 3.26598L20.6572 3.48532L20.6875 3.21817C20.7224 2.91112 20.8948 2.87722 21.3022 3.09734C21.4499 3.17715 21.6292 3.24245 21.7007 3.24245C21.7721 3.24245 21.8306 3.27654 21.8306 3.31821C21.8306 3.35988 22.0416 3.4788 22.2994 3.58246C22.5573 3.68612 22.7683 3.79525 22.7683 3.82493C22.7683 3.85462 22.9578 3.96522 23.1893 4.0707C23.4209 4.17617 23.6108 4.29526 23.6113 4.33534C23.6118 4.37541 23.6554 4.4082 23.7082 4.4082C23.8273 4.4082 25.0539 5.19911 25.0968 5.30359C25.114 5.34543 25.1804 5.37965 25.2444 5.37965C25.4509 5.37965 26.4949 6.51246 26.6768 6.93398C26.7114 7.01412 26.7642 7.10155 26.7942 7.12827C26.9089 7.23045 27.1763 8.16247 27.1758 8.45828C27.1755 8.62877 27.2231 8.79883 27.2814 8.8362C27.3856 8.90289 27.3573 10.4378 27.2128 12.5684L27.1567 13.3942L27.4942 13.5795C27.6798 13.6814 27.8317 13.8235 27.8317 13.8952C27.8317 13.9669 27.8691 14.0256 27.9148 14.0256C28.0654 14.0256 28.1091 14.833 28.0227 16.0171C27.9759 16.6582 27.9092 17.3237 27.8744 17.4959C27.7988 17.8702 27.4113 18.3 27.1495 18.3C26.9182 18.3 26.7135 18.5638 26.7095 18.8669C26.7054 19.1786 26.3948 20.3811 26.3081 20.4211C26.2694 20.4389 26.2377 20.5507 26.2377 20.6696C26.2377 20.7885 26.1757 20.9707 26.1 21.0744C26.0243 21.1781 25.961 21.314 25.9594 21.3764C25.9517 21.6661 24.987 23.188 24.2927 24.0059C24.1438 24.1813 24.1168 24.3214 24.1525 24.7345C24.1769 25.0158 24.234 25.2875 24.2796 25.3382C24.3251 25.389 24.3623 25.5825 24.3623 25.7684C24.3623 25.9542 24.4319 26.416 24.5169 26.7946L24.6715 27.483L25.9937 28.1587C26.7209 28.5304 27.4567 28.9189 27.6287 29.022L27.9415 29.2094L27.5818 29.347C27.384 29.4227 27.1483 29.5087 27.058 29.5381C26.9678 29.5675 26.8939 29.6302 26.8939 29.6774C26.8939 29.7246 26.7885 29.7632 26.6595 29.7632C26.5306 29.7632 26.4251 29.807 26.4251 29.8604C26.4251 29.9138 26.3724 29.9585 26.3079 29.9597C26.2434 29.9609 25.9375 30.0911 25.6281 30.249C25.3187 30.4069 25.0127 30.537 24.9483 30.5382C24.8838 30.5394 24.8311 30.5735 24.8311 30.6138C24.8311 30.6542 24.6939 30.7476 24.5263 30.8214C24.3587 30.8951 23.9589 31.1244 23.6378 31.3308C23.3168 31.5373 23.0268 31.7062 22.9934 31.7062C22.9271 31.7062 21.9082 32.4503 21.5779 32.74C21.4647 32.8392 21.2538 33.0178 21.1091 33.1367C20.6286 33.5317 20.2855 33.8863 19.8616 34.4262C19.6308 34.7201 19.4204 34.9824 19.3939 35.0091C19.3674 35.0358 19.2997 35.1451 19.2435 35.252C19.1873 35.3588 19.0308 35.6522 18.8958 35.9038C18.5895 36.4748 18.1736 37.7083 18.1736 38.0459C18.1736 38.1853 18.1322 38.4121 18.0817 38.5499C18.0311 38.6876 17.9429 39.073 17.8857 39.4062C17.7721 40.0673 17.6974 40.4364 17.4687 41.4693C17.3859 41.8433 17.2812 42.3242 17.236 42.5379C17.1907 42.7516 17.0857 43.2325 17.0024 43.6065C16.9192 43.9805 16.8171 44.4832 16.7756 44.7237C16.626 45.5897 17.5506 45.5008 8.69318 45.5008H0.826828L0.826916 45.0695Z" fill="black"/>
</g>
<defs>
<clipPath id="clip0_234_252">
<rect width="78.2941" height="52" fill="white" transform="translate(0.640442 0.689819)"/>
</clipPath>
</defs>
</svg>
